# 3ds Max Wavefront OBJ Exporter v0.97b - (c)2007 guruware
# File Created: 15.04.2019 18:36:02

mtllib carrot.mtl

#
# object Mesh
#

v  -219.6084 121.5544 252.6661
v  -70.8531 121.5544 -84.2810
v  -140.5376 593.8010 235.9222
v  -109.4470 588.1381 -79.6030
v  291.1243 121.5544 -98.1500
v  -75.5049 121.5544 -133.4240
v  250.3696 593.8008 -167.9464
v  -58.9300 588.1381 -98.2579
v  3.2058 -981.5256 -78.9797
v  -28.8168 -1078.8365 -101.4019
v  14.2678 -981.5256 -128.8776
v  -24.2304 -1078.8365 -122.0895
v  46.5783 -266.0962 -34.2632
v  40.0593 -575.1553 -53.1747
v  62.9418 -266.0962 -137.4604
v  58.5742 -575.1553 -136.6902
v  30.1517 37.5840 -53.4366
v  45.0482 37.5840 -134.3053
v  40.1147 -849.7305 -133.4353
v  24.7051 -849.7305 -63.9260
v  10.9949 109.5664 -70.3998
v  22.8760 109.5664 -130.3957
v  -19.5054 131.6823 -94.8826
v  -13.0362 131.6823 -124.0632
v  -35.3155 131.6824 -105.9530
v  -32.0435 131.6824 -120.7118
v  -42.1464 196.5963 -111.5947
v  -40.4540 196.5963 -119.2289
v  -61.8357 262.1466 -118.7270
v  -61.1783 262.1070 -121.6955
v  -460.7637 449.5784 -580.2962
v  -445.3165 1066.0475 -535.5792
v  -215.7260 593.8008 -314.1931
v  -214.3218 1066.0475 -313.1321
v  -423.7767 449.5786 392.6637
v  -386.1838 1066.0479 363.9407
v  -248.2091 593.8010 76.3881
v  -247.6433 1066.0475 74.7215
v  -39.8993 -981.5256 -51.5187
v  -46.6878 -1078.8365 -90.0171
v  -27.2353 -266.0961 20.3027
v  -32.0869 -575.1553 -7.2126
v  -32.5725 37.5839 -9.9677
v  -35.3420 -849.7305 -25.6719
v  -37.4919 109.5664 -37.8670
v  -44.7137 131.6823 -78.8233
v  -48.0651 131.6824 -97.8308
v  -48.7410 196.5963 -107.3932
v  -64.3988 262.2421 -117.0936
v  117.1799 1078.8363 -98.1288
v  -147.7688 1078.8365 -307.5674
v  -89.7973 -981.5256 -62.5807
v  -67.3749 -1078.8365 -94.6030
v  -115.2600 -266.0961 -5.7266
v  -115.6021 -575.1552 -25.7276
v  -106.3811 37.5839 -29.3620
v  -104.8512 -849.7305 -41.0818
v  -94.1816 109.5664 -51.8544
v  -73.8944 131.6823 -85.2924
v  -62.8238 131.6824 -101.1025
v  -56.3754 196.5963 -109.0856
v  -67.3658 262.3376 -117.7519
v  -217.1304 121.5544 -315.2539
v  -585.8588 121.5546 -395.2923
v  -248.7747 121.5545 78.0546
v  -208.8240 121.5545 453.2487
v  -117.2582 -981.5256 -105.6861
v  -78.7602 -1078.8365 -112.4743
v  -165.9320 -266.0961 -97.1037
v  -161.5645 -575.1552 -97.8737
v  -148.0379 37.5840 -100.2587
v  -143.1052 -849.7305 -101.1284
v  -125.8660 109.5664 -104.1682
v  -89.9538 131.6823 -110.5007
v  -70.9465 131.6824 -113.8522
v  -60.5768 196.5963 -115.6805
v  -68.9989 262.3773 -120.3166
v  78.6138 562.7009 515.4144
v  -167.8223 980.4849 580.2963
v  -311.6316 980.4847 180.9775
v  446.7862 562.7007 -463.8583
v  585.8588 980.4847 -250.3184
v  252.0046 980.4847 11.7461
v  -106.1963 -981.5256 -155.5837
v  -74.1740 -1078.8365 -133.1614
v  -149.5687 -266.0961 -200.3007
v  -143.0498 -575.1552 -181.3890
v  -133.1415 37.5840 -181.1275
v  -127.6956 -849.7305 -170.6377
v  -113.9849 109.5664 -164.1642
v  -83.4846 131.6823 -139.6813
v  -67.6745 131.6824 -128.6109
v  -58.8843 196.5963 -123.3148
v  -68.3415 262.3376 -123.2851
v  -63.0911 -981.5256 -183.0448
v  -56.3029 -1078.8365 -144.5467
v  -75.7550 -266.0962 -254.8666
v  -70.9036 -575.1554 -227.3513
v  -70.4173 37.5839 -224.5964
v  -67.6485 -849.7305 -208.8918
v  -65.4981 109.5664 -196.6971
v  -58.2764 131.6823 -155.7406
v  -54.9248 131.6824 -136.7332
v  -52.2894 196.5963 -127.5163
v  -65.7786 262.2421 -124.9187
v  -188.5117 121.5545 541.7489
v  555.7708 121.5543 -218.5589
v  -13.1933 -981.5256 -171.9827
v  -35.6154 -1078.8365 -139.9604
v  12.2697 -266.0962 -228.8373
v  12.6119 -575.1553 -208.8363
v  3.3913 37.5839 -205.2019
v  1.8606 -849.7305 -193.4819
v  -8.8083 109.5664 -182.7097
v  -29.0956 131.6823 -149.2715
v  -40.1662 131.6824 -133.4615
v  -44.6553 196.5963 -125.8238
v  -62.8115 262.1466 -124.2603
# 118 vertices

vn 0.9708 -0.1561 0.1824
vn 0.9992 -0.0061 0.0393
vn 0.9994 0.0255 0.0224
vn 0.9194 -0.1304 -0.3711
vn -0.1320 -0.1561 -0.9789
vn -0.2768 -0.0061 -0.9609
vn -0.2930 0.0255 -0.9558
vn -0.6414 -0.1304 -0.7561
vn 0.7222 -0.2505 0.6447
vn 0.7601 -0.3728 0.5322
vn 0.9655 -0.2575 -0.0380
vn 0.8586 -0.3648 -0.3602
vn 0.7890 0.0096 0.6143
vn 0.8963 -0.0509 0.4405
vn 0.9846 0.0192 -0.1736
vn 0.9699 -0.0442 -0.2396
vn 0.8994 0.1179 0.4209
vn 0.9816 0.1220 -0.1472
vn 0.9899 -0.1052 -0.0952
vn 0.7673 -0.1052 0.6326
vn 0.7690 0.5157 0.3777
vn 0.8368 0.4911 -0.2420
vn 0.3807 0.9112 0.1576
vn 0.3915 0.9076 -0.1515
vn 0.6569 0.5174 0.5485
vn 0.8733 0.4622 -0.1540
vn 0.8725 0.1880 0.4510
vn 0.9654 0.2237 -0.1341
vn 0.7838 0.2948 0.5466
vn 0.8865 0.2661 -0.3785
vn 0.6196 -0.1432 -0.7717
vn 0.7134 0.0184 -0.7005
vn 0.7896 0.0081 -0.6136
vn 0.7047 -0.1209 -0.6992
vn -0.9274 -0.1432 -0.3456
vn -0.8893 0.0184 -0.4570
vn -0.8307 0.0081 -0.5566
vn -0.8853 -0.1209 -0.4491
vn 0.1662 -0.2897 0.9426
vn 0.1611 -0.3728 0.9138
vn 0.1736 0.0046 0.9848
vn 0.2185 -0.0749 0.9730
vn 0.1564 0.1335 0.9786
vn 0.0718 -0.1115 0.9912
vn 0.2498 0.5528 0.7950
vn 0.1476 0.9210 0.3606
vn 0.0762 0.5243 0.8481
vn 0.3156 0.1616 0.9350
vn -0.0521 0.1337 0.9896
vn 0.9833 -0.1475 0.1067
vn -0.2079 -0.1475 -0.9670
vn -0.5569 -0.2397 0.7953
vn -0.5322 -0.3728 0.7601
vn -0.5313 0.0096 0.8471
vn -0.6113 -0.0515 0.7897
vn -0.7264 0.1144 0.6777
vn -0.6636 -0.0973 0.7417
vn -0.4294 0.5277 0.7329
vn -0.1623 0.9178 0.3623
vn -0.5433 0.5307 0.6506
vn -0.4417 0.1046 0.8910
vn -0.7444 -0.0365 0.6667
vn 0.7155 -0.1332 -0.6858
vn 0.1793 -0.5343 -0.8261
vn -0.8759 -0.1332 -0.4636
vn -0.8406 -0.5343 0.0895
vn -0.9426 -0.2897 0.1662
vn -0.9138 -0.3728 0.1611
vn -0.9846 0.0192 0.1736
vn -0.9837 -0.0477 0.1735
vn -0.9816 0.1220 0.1472
vn -0.9769 -0.1264 0.1723
vn -0.8368 0.4911 0.2420
vn -0.3915 0.9076 0.1515
vn -0.7865 0.6018 0.1387
vn -0.9778 0.0831 0.1922
vn -0.9900 -0.1306 -0.0538
vn 0.7874 0.0087 -0.6164
vn 0.8067 0.4238 -0.4119
vn 0.8145 0.4176 0.4027
vn -0.8327 0.0087 -0.5536
vn -0.6447 0.4238 -0.6363
vn 0.1262 0.4176 -0.8998
vn -0.7831 -0.2463 -0.5711
vn -0.8618 -0.3648 -0.3524
vn -0.7890 0.0096 -0.6143
vn -0.8791 -0.0487 -0.4742
vn -0.8994 0.1179 -0.4209
vn -0.8157 -0.0913 -0.5712
vn -0.7690 0.5157 -0.3777
vn -0.3807 0.9112 -0.1576
vn -0.7330 0.5307 -0.4255
vn -0.7455 0.0413 -0.6652
vn -0.8153 -0.1170 -0.5671
vn -0.0380 -0.2575 -0.9655
vn -0.3602 -0.3648 -0.8586
vn -0.1736 0.0046 -0.9848
vn -0.1732 -0.0743 -0.9821
vn -0.1564 0.1335 -0.9786
vn -0.2144 -0.1190 -0.9695
vn -0.2498 0.5528 -0.7950
vn -0.1476 0.9210 -0.3606
vn -0.2185 0.5243 -0.8230
vn -0.0238 0.0942 -0.9953
vn -0.3930 -0.0443 -0.9185
vn 0.8531 -0.3419 -0.3942
vn -0.6424 -0.3419 -0.6859
vn 0.6558 -0.2575 -0.7096
vn 0.3524 -0.3648 -0.8618
vn 0.5313 0.0096 -0.8471
vn 0.6639 -0.0488 -0.7463
vn 0.7264 0.1144 -0.6777
vn 0.5503 -0.0977 -0.8293
vn 0.4294 0.5277 -0.7329
vn 0.1623 0.9178 -0.3623
vn 0.4296 0.5174 -0.7401
vn 0.6821 0.1527 -0.7152
vn 0.3710 0.1246 -0.9202
# 118 vertex normals

vt 0.5007 0.5612 0.0000
vt 0.5853 0.5612 0.0000
vt 0.5005 0.6722 0.0000
vt 0.5850 0.6722 0.0000
vt 0.2863 0.7609 0.0000
vt 0.3088 0.7566 0.0000
vt 0.2901 0.7720 0.0000
vt 0.3104 0.7621 0.0000
vt 0.1209 0.7704 0.0000
vt 0.1929 0.7723 0.0000
vt 0.1185 0.7895 0.0000
vt 0.1942 0.7891 0.0000
vt 0.0511 0.7647 0.0000
vt 0.0456 0.7812 0.0000
vt 0.2596 0.7815 0.0000
vt 0.2562 0.7658 0.0000
vt 0.0348 0.7624 0.0000
vt 0.0283 0.7737 0.0000
vt 0.0259 0.7588 0.0000
vt 0.0221 0.7657 0.0000
vt 0.0220 0.7563 0.0000
vt 0.0198 0.7611 0.0000
vt 0.3101 0.2343 0.0000
vt 0.3048 0.2343 0.0000
vt 0.3094 0.2096 0.0000
vt 0.3048 0.2096 0.0000
vt 0.3086 0.1848 0.0000
vt 0.3048 0.1849 0.0000
vt 0.7541 0.6383 0.0000
vt 0.7534 0.7833 0.0000
vt 0.6694 0.6722 0.0000
vt 0.6690 0.7833 0.0000
vt 0.2847 0.7491 0.0000
vt 0.3082 0.7493 0.0000
vt 0.1221 0.7517 0.0000
vt 0.1923 0.7521 0.0000
vt 0.0536 0.7499 0.0000
vt 0.2546 0.7500 0.0000
vt 0.0374 0.7506 0.0000
vt 0.0274 0.7498 0.0000
vt 0.0232 0.7487 0.0000
vt 0.3123 0.2343 0.0000
vt 0.3113 0.2096 0.0000
vt 0.3102 0.1847 0.0000
vt 0.5847 0.7833 0.0000
vt 0.2842 0.7370 0.0000
vt 0.3081 0.7410 0.0000
vt 0.1226 0.7329 0.0000
vt 0.1921 0.7319 0.0000
vt 0.0541 0.7353 0.0000
vt 0.2541 0.7341 0.0000
vt 0.0377 0.7386 0.0000
vt 0.0279 0.7400 0.0000
vt 0.0237 0.7398 0.0000
vt 0.3086 0.1846 0.0000
vt 0.6699 0.5612 0.0000
vt 0.7544 0.5612 0.0000
vt 0.2832 0.7526 0.0000
vt 0.3071 0.7552 0.0000
vt 0.1213 0.7506 0.0000
vt 0.1910 0.7496 0.0000
vt 0.0525 0.7519 0.0000
vt 0.2531 0.7510 0.0000
vt 0.0362 0.7545 0.0000
vt 0.0268 0.7555 0.0000
vt 0.0225 0.7550 0.0000
vt 0.3048 0.1845 0.0000
vt 0.4161 0.6607 0.0000
vt 0.4160 0.7833 0.0000
vt 0.5003 0.7833 0.0000
vt 0.2841 0.7645 0.0000
vt 0.3074 0.7633 0.0000
vt 0.1204 0.7730 0.0000
vt 0.1912 0.7695 0.0000
vt 0.0515 0.7682 0.0000
vt 0.2540 0.7667 0.0000
vt 0.0353 0.7673 0.0000
vt 0.0261 0.7650 0.0000
vt 0.0219 0.7634 0.0000
vt 0.2995 0.2343 0.0000
vt 0.3002 0.2096 0.0000
vt 0.3009 0.1846 0.0000
vt 0.2863 0.7760 0.0000
vt 0.3083 0.7701 0.0000
vt 0.1189 0.7894 0.0000
vt 0.1920 0.7859 0.0000
vt 0.0486 0.7835 0.0000
vt 0.2562 0.7823 0.0000
vt 0.0322 0.7791 0.0000
vt 0.0239 0.7734 0.0000
vt 0.0203 0.7700 0.0000
vt 0.2973 0.2343 0.0000
vt 0.2983 0.2096 0.0000
vt 0.2993 0.1847 0.0000
vt 0.4162 0.5612 0.0000
vt 0.2912 0.7866 0.0000
vt 0.3106 0.7750 0.0000
vt 0.1166 0.8033 0.0000
vt 0.1942 0.8016 0.0000
vt 0.0421 0.7987 0.0000
vt 0.2605 0.7978 0.0000
vt 0.0239 0.7886 0.0000
vt 0.0186 0.7785 0.0000
vt 0.0174 0.7732 0.0000
vt 0.3009 0.1848 0.0000
vt 0.2947 0.7825 0.0000
vt 0.3135 0.7659 0.0000
vt 0.1166 0.8065 0.0000
vt 0.1952 0.8040 0.0000
vt 0.0393 0.7975 0.0000
vt 0.2653 0.7970 0.0000
vt 0.0193 0.7855 0.0000
vt 0.0152 0.7696 0.0000
vt 0.0164 0.7620 0.0000
# 114 texture coords

g Mesh
usemtl Leaves
s off
f 1/1/1 2/2/2 3/3/3 
f 4/4/4 3/3/3 2/2/2 
f 5/1/5 6/2/6 7/3/7 
f 8/4/8 7/3/7 6/2/6 
usemtl Vegetables
f 9/5/9 10/6/10 11/7/11 
f 12/8/12 11/7/11 10/6/10 
f 13/9/13 14/10/14 15/11/15 
f 16/12/16 15/11/15 14/10/14 
f 13/9/13 15/11/15 17/13/17 
f 18/14/18 17/13/17 15/11/15 
f 16/12/16 14/10/14 19/15/19 
f 20/16/20 19/15/19 14/10/14 
f 17/13/17 18/14/18 21/17/21 
f 22/18/22 21/17/21 18/14/18 
f 21/17/21 22/18/22 23/19/23 
f 24/20/24 23/19/23 22/18/22 
f 19/15/19 20/16/20 11/7/11 
f 9/5/9 11/7/11 20/16/20 
f 23/19/23 24/20/24 25/21/25 
f 26/22/26 25/21/25 24/20/24 
f 25/23/25 26/24/26 27/25/27 
f 28/26/28 27/25/27 26/24/26 
f 27/25/27 28/26/28 29/27/29 
f 30/28/30 29/27/29 28/26/28 
usemtl Leaves
f 31/29/31 32/30/32 33/31/33 
f 34/32/34 33/31/33 32/30/32 
f 35/29/35 36/30/36 37/31/37 
f 38/32/38 37/31/37 36/30/36 
usemtl Vegetables
f 9/5/9 39/33/39 10/6/10 
f 40/34/40 10/6/10 39/33/39 
f 41/35/41 42/36/42 13/9/13 
f 14/10/14 13/9/13 42/36/42 
f 41/35/41 13/9/13 43/37/43 
f 17/13/17 43/37/43 13/9/13 
f 14/10/14 42/36/42 20/16/20 
f 44/38/44 20/16/20 42/36/42 
f 43/37/43 17/13/17 45/39/45 
f 21/17/21 45/39/45 17/13/17 
f 45/39/45 21/17/21 46/40/46 
f 23/19/23 46/40/46 21/17/21 
f 20/16/20 44/38/44 9/5/9 
f 39/33/39 9/5/9 44/38/44 
f 46/40/46 23/19/23 47/41/47 
f 25/21/25 47/41/47 23/19/23 
f 47/42/47 25/23/25 48/43/48 
f 27/25/27 48/43/48 25/23/25 
f 27/25/27 29/27/29 48/43/48 
f 49/44/49 48/43/48 29/27/29 
usemtl Leaves
f 50/45/50 4/4/4 34/32/34 
f 33/31/33 34/32/34 4/4/4 
f 51/45/51 8/4/8 38/32/38 
f 37/31/37 38/32/38 8/4/8 
usemtl Vegetables
f 52/46/52 53/47/53 39/33/39 
f 40/34/40 39/33/39 53/47/53 
f 41/35/41 54/48/54 42/36/42 
f 55/49/55 42/36/42 54/48/54 
f 41/35/41 43/37/43 54/48/54 
f 56/50/56 54/48/54 43/37/43 
f 42/36/42 55/49/55 44/38/44 
f 57/51/57 44/38/44 55/49/55 
f 56/50/56 43/37/43 58/52/58 
f 45/39/45 58/52/58 43/37/43 
f 58/52/58 45/39/45 59/53/59 
f 46/40/46 59/53/59 45/39/45 
f 57/51/57 52/46/52 44/38/44 
f 39/33/39 44/38/44 52/46/52 
f 59/53/59 46/40/46 60/54/60 
f 47/41/47 60/54/60 46/40/46 
f 60/23/60 47/42/47 61/25/61 
f 48/43/48 61/25/61 47/42/47 
f 48/43/48 49/44/49 61/25/61 
f 62/55/62 61/25/61 49/44/49 
usemtl Leaves
f 33/31/33 63/56/63 31/29/31 
f 64/57/64 31/29/31 63/56/63 
f 37/31/37 65/56/65 35/29/35 
f 66/57/66 35/29/35 65/56/65 
usemtl Vegetables
f 52/46/52 67/58/67 53/47/53 
f 68/59/68 53/47/53 67/58/67 
f 54/48/54 69/60/69 55/49/55 
f 70/61/70 55/49/55 69/60/69 
f 54/48/54 56/50/56 69/60/69 
f 71/62/71 69/60/69 56/50/56 
f 55/49/55 70/61/70 57/51/57 
f 72/63/72 57/51/57 70/61/70 
f 71/62/71 56/50/56 73/64/73 
f 58/52/58 73/64/73 56/50/56 
f 73/64/73 58/52/58 74/65/74 
f 59/53/59 74/65/74 58/52/58 
f 57/51/57 72/63/72 52/46/52 
f 67/58/67 52/46/52 72/63/72 
f 74/65/74 59/53/59 75/66/75 
f 60/54/60 75/66/75 59/53/59 
f 75/24/75 60/23/60 76/26/76 
f 61/25/61 76/26/76 60/23/60 
f 61/25/61 62/55/62 76/26/76 
f 77/67/77 76/26/76 62/55/62 
usemtl Leaves
f 78/68/78 3/3/3 79/69/79 
f 80/70/80 79/69/79 3/3/3 
f 81/68/81 7/3/7 82/69/82 
f 83/70/83 82/69/82 7/3/7 
usemtl Vegetables
f 84/71/84 85/72/85 67/58/67 
f 68/59/68 67/58/67 85/72/85 
f 86/73/86 87/74/87 69/60/69 
f 70/61/70 69/60/69 87/74/87 
f 86/73/86 69/60/69 88/75/88 
f 71/62/71 88/75/88 69/60/69 
f 87/74/87 89/76/89 70/61/70 
f 72/63/72 70/61/70 89/76/89 
f 88/75/88 71/62/71 90/77/90 
f 73/64/73 90/77/90 71/62/71 
f 90/77/90 73/64/73 91/78/91 
f 74/65/74 91/78/91 73/64/73 
f 89/76/89 84/71/84 72/63/72 
f 67/58/67 72/63/72 84/71/84 
f 91/78/91 74/65/74 92/79/92 
f 75/66/75 92/79/92 74/65/74 
f 75/24/75 76/26/76 92/80/92 
f 93/81/93 92/80/92 76/26/76 
f 76/26/76 77/67/77 93/81/93 
f 94/82/94 93/81/93 77/67/77 
usemtl Leaves
f 2/2/2 63/56/63 4/4/4 
f 33/31/33 4/4/4 63/56/63 
f 6/2/6 65/56/65 8/4/8 
f 37/31/37 8/4/8 65/56/65 
usemtl Vegetables
f 95/83/95 96/84/96 84/71/84 
f 85/72/85 84/71/84 96/84/96 
f 97/85/97 98/86/98 86/73/86 
f 87/74/87 86/73/86 98/86/98 
f 97/85/97 86/73/86 99/87/99 
f 88/75/88 99/87/99 86/73/86 
f 87/74/87 98/86/98 89/76/89 
f 100/88/100 89/76/89 98/86/98 
f 99/87/99 88/75/88 101/89/101 
f 90/77/90 101/89/101 88/75/88 
f 101/89/101 90/77/90 102/90/102 
f 91/78/91 102/90/102 90/77/90 
f 89/76/89 100/88/100 84/71/84 
f 95/83/95 84/71/84 100/88/100 
f 102/90/102 91/78/91 103/91/103 
f 92/79/92 103/91/103 91/78/91 
f 92/80/92 93/81/93 103/92/103 
f 104/93/104 103/92/103 93/81/93 
f 104/93/104 93/81/93 105/94/105 
f 94/82/94 105/94/105 93/81/93 
usemtl Leaves
f 78/68/78 106/95/106 3/3/3 
f 1/1/1 3/3/3 106/95/106 
f 81/68/81 107/95/107 7/3/7 
f 5/1/5 7/3/7 107/95/107 
usemtl Vegetables
f 108/96/108 109/97/109 95/83/95 
f 96/84/96 95/83/95 109/97/109 
f 97/85/97 110/98/110 98/86/98 
f 111/99/111 98/86/98 110/98/110 
f 97/85/97 99/87/99 110/98/110 
f 112/100/112 110/98/110 99/87/99 
f 111/99/111 113/101/113 98/86/98 
f 100/88/100 98/86/98 113/101/113 
f 112/100/112 99/87/99 114/102/114 
f 101/89/101 114/102/114 99/87/99 
f 114/102/114 101/89/101 115/103/115 
f 102/90/102 115/103/115 101/89/101 
f 100/88/100 113/101/113 95/83/95 
f 108/96/108 95/83/95 113/101/113 
f 115/103/115 102/90/102 116/104/116 
f 103/91/103 116/104/116 102/90/102 
f 103/92/103 104/93/104 116/80/116 
f 117/81/117 116/80/116 104/93/104 
f 117/81/117 104/93/104 118/105/118 
f 105/94/105 118/105/118 104/93/104 
usemtl Leaves
f 80/70/80 3/3/3 50/45/50 
f 4/4/4 50/45/50 3/3/3 
f 83/70/83 7/3/7 51/45/51 
f 8/4/8 51/45/51 7/3/7 
usemtl Vegetables
f 11/7/11 12/8/12 108/106/108 
f 109/107/109 108/106/108 12/8/12 
f 110/108/110 15/11/15 111/109/111 
f 16/12/16 111/109/111 15/11/15 
f 110/108/110 112/110/112 15/11/15 
f 18/14/18 15/11/15 112/110/112 
f 111/109/111 16/12/16 113/111/113 
f 19/15/19 113/111/113 16/12/16 
f 18/14/18 112/110/112 22/18/22 
f 114/112/114 22/18/22 112/110/112 
f 22/18/22 114/112/114 24/20/24 
f 115/113/115 24/20/24 114/112/114 
f 113/111/113 19/15/19 108/106/108 
f 11/7/11 108/106/108 19/15/19 
f 24/20/24 115/113/115 26/22/26 
f 116/114/116 26/22/26 115/113/115 
f 116/80/116 117/81/117 26/24/26 
f 28/26/28 26/24/26 117/81/117 
f 28/26/28 117/81/117 30/28/30 
f 118/105/118 30/28/30 117/81/117 
# 0 polygons - 192 triangles

