# 3ds Max Wavefront OBJ Exporter v0.97b - (c)2007 guruware
# File Created: 15.04.2019 18:52:44

mtllib ground_patch.mtl

#
# object Mesh
#

v  864.3387 3.2991 -1707.3138
v  1643.7522 3.2991 -729.4771
v  1262.6866 3.2991 -1603.2593
v  -25.3832 3.2991 1707.3145
v  -1643.7512 3.2991 834.5308
v  -1444.0809 3.2990 1489.0820
v  62.4927 334.0166 -48.0869
v  -21.4824 3.2989 -1598.8730
v  -1643.7512 3.2990 23.3963
v  1485.7013 3.2991 1238.1121
v  1103.9601 3.2991 1658.4424
v  -1549.4905 3.2990 -1148.8319
v  -1445.3307 3.2989 -1380.6603
v  -1171.4949 3.2990 -1519.3727
# 14 vertices

vn 0.0753 0.9867 -0.1442
vn 0.1777 0.9834 -0.0375
vn 0.0000 1.0000 0.0000
vn -0.0747 0.9893 0.1255
vn -0.0000 1.0000 0.0000
vn -0.0000 1.0000 -0.0000
vn -0.0282 0.9795 -0.1997
vn -0.1479 0.9858 0.0789
vn 0.1893 0.9810 0.0428
vn 0.0499 0.9858 0.1606
vn -0.1839 0.9826 -0.0260
vn -0.0513 0.9834 -0.1742
# 12 vertex normals

vt 0.7500 1.0000 0.0000
vt 1.0000 0.5000 0.0000
vt 0.8750 1.0000 0.0000
vt 0.2500 0.0000 0.0000
vt 0.0000 0.2500 0.0000
vt 0.0000 0.1250 0.0000
vt 0.5208 0.5208 0.0000
vt 0.5000 1.0000 0.0000
vt 0.0000 0.5000 0.0000
vt 1.0000 0.1250 0.0000
vt 0.8750 0.0000 0.0000
vt 0.0433 0.8694 0.0000
vt 0.0000 1.0000 0.0000
vt 0.1043 0.9774 0.0000
# 14 texture coords

g Mesh
usemtl Dirt
s off
f 1/1/1 2/2/2 3/3/3 
f 4/4/4 5/5/3 6/6/5 
f 2/2/2 1/1/1 7/7/6 
f 8/8/7 7/7/6 1/1/1 
f 7/7/6 9/9/8 4/4/4 
f 5/5/3 4/4/4 9/9/8 
f 2/2/2 7/7/6 10/10/9 
f 11/11/10 10/10/9 7/7/6 
f 7/7/6 4/4/4 11/11/10 
f 9/9/8 7/7/6 12/12/11 
f 13/13/12 12/12/11 7/7/6 
f 7/7/6 8/8/7 13/13/12 
f 14/14/3 13/13/12 8/8/7 
# 0 polygons - 13 triangles

